<?xml version="1.0" standalone="no"?><!DOCTYPE svg PUBLIC "-//W3C//DTD SVG 1.1//EN" "http://www.w3.org/Graphics/SVG/1.1/DTD/svg11.dtd"><svg t="1621158307682" class="icon" viewBox="0 0 1024 1024" version="1.1" xmlns="http://www.w3.org/2000/svg" p-id="1085" xmlns:xlink="http://www.w3.org/1999/xlink" width="200" height="200"><defs><style type="text/css"></style></defs><path d="M928 800H96a64 64 0 0 1-64-64V288a64 64 0 0 1 64-64h832a64 64 0 0 1 64 64v448a64 64 0 0 1-64 64zM96 288v448h832V288z" fill="#515151" p-id="1086"></path><path d="M672 672H352a32 32 0 0 1 0-64h320a32 32 0 0 1 0 64zM224 672H160a32 32 0 0 1 0-64h64a32 32 0 0 1 0 64zM288 416H160a32 32 0 0 1 0-64h128a32 32 0 0 1 0 64zM448 416h-64a32 32 0 0 1 0-64h64a32 32 0 0 1 0 64zM640 416h-64a32 32 0 0 1 0-64h64a32 32 0 0 1 0 64zM864 416h-128a32 32 0 0 1 0-64h128a32 32 0 0 1 0 64zM288 544H160a32 32 0 0 1 0-64h128a32 32 0 0 1 0 64zM864 544h-128a32 32 0 0 1 0-64h128a32 32 0 0 1 0 64zM864 672h-64a32 32 0 0 1 0-64h64a32 32 0 0 1 0 64zM608 544h-192a32 32 0 0 1 0-64h192a32 32 0 0 1 0 64z" fill="#515151" p-id="1087"></path></svg>